HIERARCHY
ROOT joint_Root
{
	OFFSET 0.0 0.0 0.0
	CHANNELS 6 Xposition Yposition Zposition Zrotation Xrotation Yrotation 
	JOINT Hips
	{
		OFFSET -17.1583 93.1646 452.98
		CHANNELS 6 Xposition Yposition Zposition Zrotation Xrotation Yrotation 
		JOINT Spine
		{
			OFFSET 15.7357 0.0 0.0
			CHANNELS 6 Xposition Yposition Zposition Zrotation Xrotation Yrotation 
			JOINT Chest
			{
				OFFSET 8.98455 -0.406207 0.0
				CHANNELS 6 Xposition Yposition Zposition Zrotation Xrotation Yrotation 
				JOINT Neck
				{
					OFFSET 16.3773 0.0 0.0
					CHANNELS 6 Xposition Yposition Zposition Zrotation Xrotation Yrotation 
					JOINT Head
					{
						OFFSET 6.45672 0.0 0.0
						CHANNELS 6 Xposition Yposition Zposition Zrotation Xrotation Yrotation 
						End Site
						{
							OFFSET 0.0 0.0 0.0
						}
					}
				}
				JOINT Shoulder_L
				{
					OFFSET 12.9942 -0.242716 4.98039
					CHANNELS 6 Xposition Yposition Zposition Zrotation Xrotation Yrotation 
					JOINT UpperArm_L
					{
						OFFSET 5.34809 0.0 0.0
						CHANNELS 6 Xposition Yposition Zposition Zrotation Xrotation Yrotation 
						JOINT LowerArm_L
						{
							OFFSET 24.3286 1.87007e-05 0.0
							CHANNELS 6 Xposition Yposition Zposition Zrotation Xrotation Yrotation 
							JOINT Hand_L
							{
								OFFSET 22.2916 0.0 0.0
								CHANNELS 6 Xposition Yposition Zposition Zrotation Xrotation Yrotation 
								End Site
								{
									OFFSET 0.0 0.0 0.0
								}
							}
						}
					}
				}
				JOINT Shoulder_R
				{
					OFFSET 12.9945 -0.242716 -4.98039
					CHANNELS 6 Xposition Yposition Zposition Zrotation Xrotation Yrotation 
					JOINT UpperArm_R
					{
						OFFSET -5.34813 0.0 0.0
						CHANNELS 6 Xposition Yposition Zposition Zrotation Xrotation Yrotation 
						JOINT LowerArm_R
						{
							OFFSET -24.3289 0.000322201 0.0
							CHANNELS 6 Xposition Yposition Zposition Zrotation Xrotation Yrotation 
							JOINT Hand_R
							{
								OFFSET -22.2915 -0.000108084 0.0
								CHANNELS 6 Xposition Yposition Zposition Zrotation Xrotation Yrotation 
								End Site
								{
									OFFSET 0.0 0.0 0.0
								}
							}
						}
					}
				}
			}
		}
		JOINT UpperLeg_L
		{
			OFFSET -2.19248 -6.46944 0.0
			CHANNELS 6 Xposition Yposition Zposition Zrotation Xrotation Yrotation 
			JOINT LowerLeg_L
			{
				OFFSET 39.0811 0.0 -1.23785e-05
				CHANNELS 6 Xposition Yposition Zposition Zrotation Xrotation Yrotation 
				JOINT Foot_L
				{
					OFFSET 40.9854 0.0 -1.26872e-05
					CHANNELS 6 Xposition Yposition Zposition Zrotation Xrotation Yrotation 
					JOINT Toes_L
					{
						OFFSET 11.7543 0.0 0.0
						CHANNELS 6 Xposition Yposition Zposition Zrotation Xrotation Yrotation 
						End Site
						{
							OFFSET 0.0 0.0 0.0
						}
					}
				}
			}
		}
		JOINT UpperLeg_R
		{
			OFFSET -2.19251 6.46944 0.0
			CHANNELS 6 Xposition Yposition Zposition Zrotation Xrotation Yrotation 
			JOINT LowerLeg_R
			{
				OFFSET -39.0811 -0.00228153 -0.0401928
				CHANNELS 6 Xposition Yposition Zposition Zrotation Xrotation Yrotation 
				JOINT Foot_R
				{
					OFFSET -40.9854 0.0 0.0
					CHANNELS 6 Xposition Yposition Zposition Zrotation Xrotation Yrotation 
					JOINT Toes_R
					{
						OFFSET -11.7543 0.0 0.0
						CHANNELS 6 Xposition Yposition Zposition Zrotation Xrotation Yrotation 
						End Site
						{
							OFFSET 0.0 0.0 0.0
						}
					}
				}
			}
		}
	}
}
MOTION
Frames:	7
Frame Time:	0.0333333
0.000000 0.000000 0.000000 0.000000 0.000000 -0.000000 0.339760 92.852900 -0.934787 86.776300 0.220726 2.027510 15.735700 0.000005 -0.000001 69.134600 86.984800 -67.275500 8.984550 -0.406207 -0.000000 -2.091560 -2.307140 3.676100 16.377300 -0.000001 -0.000001 4.474550 2.301500 -2.068240 6.456720 -0.000001 -0.000000 0.508642 2.022870 -3.249310 12.994200 -0.242716 4.980390 -92.640700 7.991000 -71.645600 5.348090 -0.000007 -0.000001 -72.983700 30.592800 0.460062 24.328600 0.000019 0.000005 13.323400 29.748800 -25.513700 22.291600 -0.000001 0.000005 -4.207610 5.060460 6.005740 12.994500 -0.242716 -4.980390 88.413500 5.131420 -72.794100 -5.348130 -0.000001 -0.000004 -71.612700 12.283600 -3.987210 -24.328900 0.000322 -0.000009 -0.183809 -0.855261 -12.062400 -22.291500 -0.000108 -0.000004 -1.806370 5.121790 4.609810 -2.192480 -6.469440 -0.000000 -176.685000 1.086510 -2.593340 39.081100 -0.000007 -0.000012 0.223204 -0.584374 20.904900 40.985400 -0.000006 -0.000013 3.463190 10.324600 -72.195800 11.754300 -0.000000 0.000003 -0.000209 0.171075 -9.637900 -2.192510 6.469440 -0.000001 -175.801000 7.511700 -177.772000 -39.081100 -0.002282 -0.040193 0.040020 -0.156624 13.183000 -40.985400 0.000008 0.000006 -0.613680 1.286660 -69.061800 -11.754300 -0.000006 -0.000006 -0.009625 0.268478 -5.666600
0.000000 0.000000 0.000000 0.000000 0.000000 -0.000000 0.273703 92.881700 -1.017630 86.811600 0.504570 1.867760 15.735700 0.000005 -0.000001 69.448700 87.000500 -67.635300 8.984550 -0.406207 -0.000000 -2.111130 -2.261540 3.585050 16.377300 -0.000001 -0.000001 4.118120 2.107840 -1.932680 6.456720 -0.000001 -0.000000 0.246299 1.731590 -2.828090 12.994200 -0.242716 4.980390 -92.605500 7.915320 -71.714000 5.348090 -0.000007 -0.000001 -72.965100 30.571600 0.237810 24.328600 0.000019 0.000005 13.349000 29.684400 -25.602000 22.291600 -0.000001 0.000005 -4.031330 5.057740 6.066370 12.994500 -0.242716 -4.980390 88.401300 5.183720 -72.833200 -5.348130 -0.000001 -0.000004 -70.790400 11.578200 -4.315900 -24.328900 0.000322 -0.000009 -0.053169 -0.248381 -11.850400 -22.291500 -0.000108 -0.000004 -2.131460 5.130180 4.413170 -2.192480 -6.469440 -0.000000 -176.642000 1.121800 -2.767860 39.081100 -0.000007 -0.000012 0.219291 -0.578751 20.752300 40.985400 -0.000006 -0.000013 3.428440 10.568800 -72.118600 11.754300 -0.000000 0.000003 -0.000301 0.172541 -9.578390 -2.192510 6.469440 -0.000001 -175.787000 7.672220 -177.926000 -39.081100 -0.002282 -0.040193 0.037024 -0.145416 13.044200 -40.985400 0.000008 0.000006 -0.839911 1.231120 -68.932400 -11.754300 -0.000006 -0.000006 -0.009558 0.267974 -5.687190
0.000000 0.000000 0.000000 0.000000 0.000000 -0.000000 0.200105 92.902100 -1.103370 86.860900 0.830360 1.714630 15.735700 0.000005 -0.000001 69.570900 87.007400 -67.807100 8.984550 -0.406207 -0.000000 -2.120910 -2.240670 3.486000 16.377300 -0.000001 -0.000001 3.735420 1.885700 -1.712870 6.456720 -0.000001 -0.000000 -0.006033 1.439030 -2.446130 12.994200 -0.242716 4.980390 -92.556900 7.807430 -71.802900 5.348090 -0.000007 -0.000001 -72.971400 30.510600 0.038967 24.328600 0.000019 0.000005 13.414300 29.630600 -25.752200 22.291600 -0.000001 0.000005 -3.979560 5.055680 6.111670 12.994500 -0.242716 -4.980390 88.394000 5.214680 -72.855900 -5.348130 -0.000001 -0.000004 -69.727700 10.166800 -4.732140 -24.328900 0.000322 -0.000009 0.060962 0.299562 -11.694700 -22.291500 -0.000108 -0.000004 -2.074320 5.130210 4.412590 -2.192480 -6.469440 -0.000000 -176.617000 1.252010 -2.987370 39.081100 -0.000007 -0.000012 0.216238 -0.573745 20.651300 40.985400 -0.000006 -0.000013 3.389570 10.787300 -71.968100 11.754300 -0.000000 0.000003 -0.000075 0.168869 -9.727500 -2.192510 6.469440 -0.000001 -175.760000 7.943870 -178.073000 -39.081100 -0.002282 -0.040193 0.035915 -0.142198 12.905200 -40.985400 0.000008 0.000006 -0.778983 1.156480 -68.844800 -11.754300 -0.000006 -0.000006 -0.009797 0.269780 -5.613350
0.000000 0.000000 0.000000 0.000000 0.000000 -0.000000 0.129192 92.928000 -1.187520 86.869600 1.135840 1.578310 15.735700 0.000005 -0.000001 69.594900 87.004900 -67.864800 8.984550 -0.406207 -0.000000 -2.116250 -2.237040 3.418800 16.377300 -0.000001 -0.000001 3.389020 1.675160 -1.534840 6.456720 -0.000001 -0.000000 -0.287434 1.163870 -1.954170 12.994200 -0.242716 4.980390 -92.501300 7.687920 -71.916000 5.348090 -0.000007 -0.000001 -73.017100 30.442200 -0.073483 24.328600 0.000019 0.000005 13.495600 29.572400 -25.933400 22.291600 -0.000001 0.000005 -4.019850 5.055440 6.117090 12.994500 -0.242716 -4.980390 88.398300 5.205440 -72.870300 -5.348130 -0.000001 -0.000004 -68.485300 7.950400 -5.222120 -24.328900 0.000322 -0.000009 0.071573 0.350398 -11.708200 -22.291500 -0.000108 -0.000004 -1.408470 5.130330 4.409570 -2.192480 -6.469440 -0.000000 -176.552000 1.327510 -3.180120 39.081100 -0.000007 -0.000012 0.212862 -0.567884 20.548100 40.985400 -0.000006 -0.000013 3.351710 11.004800 -71.874800 11.754300 -0.000000 0.000003 -0.000200 0.170923 -9.644110 -2.192510 6.469440 -0.000001 -175.717000 8.125070 -178.192000 -39.081100 -0.002282 -0.040193 0.032411 -0.128655 12.735100 -40.985400 0.000008 0.000006 -0.978146 1.088480 -68.677000 -11.754300 -0.000006 -0.000006 -0.009608 0.268353 -5.671720
0.000000 0.000000 0.000000 0.000000 0.000000 -0.000000 0.064228 92.948000 -1.289640 86.888700 1.429460 1.459290 15.735700 0.000005 -0.000001 69.093100 86.980700 -67.396300 8.984550 -0.406207 -0.000000 -2.089260 -2.300170 3.351650 16.377300 -0.000001 -0.000001 3.057530 1.470250 -1.350590 6.456720 -0.000001 -0.000000 -0.562347 0.953156 -1.390970 12.994200 -0.242716 4.980390 -92.460000 7.579060 -71.958200 5.348090 -0.000007 -0.000001 -73.043500 30.398100 -0.142040 24.328600 0.000019 0.000005 13.508400 29.374700 -26.093500 22.291600 -0.000001 0.000005 -4.025850 5.054550 6.136600 12.994500 -0.242716 -4.980390 88.383800 5.268120 -72.917600 -5.348130 -0.000001 -0.000004 -67.051700 4.723550 -5.737570 -24.328900 0.000322 -0.000009 0.051264 0.241570 -12.225100 -22.291500 -0.000108 -0.000004 -0.162174 5.121820 4.607960 -2.192480 -6.469440 -0.000000 -176.511000 1.487990 -3.378160 39.081100 -0.000007 -0.000012 0.212690 -0.569250 20.487700 40.985400 -0.000006 -0.000013 3.303550 11.149100 -71.811800 11.754300 -0.000000 0.000003 -0.000335 0.173078 -9.556560 -2.192510 6.469440 -0.000001 -175.679000 8.392820 -178.332000 -39.081100 -0.002282 -0.040193 0.030879 -0.122887 12.633800 -40.985400 0.000008 0.000006 -1.015510 1.106280 -68.607900 -11.754300 -0.000006 -0.000006 -0.009649 0.268665 -5.658950
0.000000 0.000000 0.000000 0.000000 0.000000 -0.000000 -0.013927 92.955700 -1.385310 86.881000 1.607110 1.383120 15.735700 0.000005 -0.000001 69.196800 86.936500 -67.521100 8.984550 -0.406207 -0.000000 -2.002920 -2.318290 3.310730 16.377300 -0.000001 -0.000001 2.758500 1.311210 -1.262850 6.456720 -0.000001 -0.000000 -0.907169 0.715505 -0.677573 12.994200 -0.242716 4.980390 -92.397200 7.455230 -72.118400 5.348090 -0.000007 -0.000001 -73.108300 30.282900 -0.127365 24.328600 0.000019 0.000005 13.593700 29.328900 -26.273800 22.291600 -0.000001 0.000005 -3.867710 5.051750 6.198640 12.994500 -0.242716 -4.980390 88.352200 5.371980 -72.919500 -5.348130 -0.000001 -0.000004 -65.475000 1.201880 -6.138410 -24.328900 0.000322 -0.000009 -0.166018 -0.661311 -13.972500 -22.291500 -0.000108 -0.000004 2.405560 5.101280 5.080280 -2.192480 -6.469440 -0.000000 -176.434000 1.523810 -3.580960 39.081100 -0.000007 -0.000012 0.212383 -0.567449 20.520100 40.985400 -0.000006 -0.000013 3.259370 11.290400 -71.694800 11.754300 -0.000000 0.000003 -0.000171 0.170459 -9.662940 -2.192510 6.469440 -0.000001 -175.598000 8.513060 -178.477000 -39.081100 -0.002282 -0.040193 0.030697 -0.122279 12.613200 -40.985400 0.000008 0.000006 -0.981631 1.080760 -68.511100 -11.754300 -0.000006 -0.000006 -0.009284 0.265878 -5.772910
0.000000 0.000000 0.000000 0.000000 0.000000 -0.000000 -0.090912 92.970700 -1.489670 86.875600 1.737540 1.378780 15.735700 0.000005 -0.000001 68.632800 86.846000 -66.969400 8.984550 -0.406207 -0.000000 -1.854530 -2.437340 3.287110 16.377300 -0.000001 -0.000001 2.447180 1.170910 -1.234750 6.456720 -0.000001 -0.000000 -1.219180 0.576551 0.070797 12.994200 -0.242716 4.980390 -92.344800 7.329510 -72.205100 5.348090 -0.000007 -0.000001 -73.199600 30.089600 -0.074609 24.328600 0.000019 0.000005 13.621300 29.373400 -26.290500 22.291600 -0.000001 0.000005 -3.797010 5.056050 6.103640 12.994500 -0.242716 -4.980390 88.324500 5.482520 -72.977500 -5.348130 -0.000001 -0.000004 -63.977600 -2.755550 -6.206020 -24.328900 0.000322 -0.000009 -0.793096 -2.471180 -17.758200 -22.291500 -0.000108 -0.000004 5.849080 5.063590 5.932480 -2.192480 -6.469440 -0.000000 -176.365000 1.594720 -3.670430 39.081100 -0.000007 -0.000012 0.210176 -0.562091 20.502100 40.985400 -0.000006 -0.000013 3.198070 11.374900 -71.640700 11.754300 -0.000000 0.000003 -0.000172 0.170466 -9.662640 -2.192510 6.469440 -0.000001 -175.519000 8.465860 -178.539000 -39.081100 -0.002282 -0.040193 0.029883 -0.119039 12.572400 -40.985400 0.000008 0.000006 -1.108040 0.873699 -68.437900 -11.754300 -0.000006 -0.000006 -0.009531 0.267764 -5.695800
